HIERARCHY
ROOT hip
{
	OFFSET 0.000000 0.000000 0.000000 
	CHANNELS 6 Xposition Yposition Zposition Xrotation Zrotation Yrotation
	JOINT abdomen
	{
		OFFSET 0.000000 3.402643 0.000000 
		CHANNELS 3 Xrotation Zrotation Yrotation
		JOINT chest
		{
			OFFSET 0.000000 8.438565 -0.680529 
			CHANNELS 3 Xrotation Zrotation Yrotation
			JOINT neck
			{
				OFFSET 0.000000 10.207942 -0.272212 
				CHANNELS 3 Xrotation Zrotation Yrotation
				JOINT head
				{
					OFFSET 0.000000 3.130431 0.000000 
					CHANNELS 3 Xrotation Zrotation Yrotation
					End Site
					{
						OFFSET 0.000000 3.130435 0.000000 
					}
				}
			}
			JOINT lCollar
			{
				OFFSET 3.470700 6.669187 -0.816635 
				CHANNELS 3 Yrotation Zrotation Xrotation
				JOINT lShldr
				{
					OFFSET 3.198488 0.000000 0.000000 
					CHANNELS 3 Zrotation Yrotation Xrotation
					JOINT lForeArm
					{
						OFFSET 10.139888 0.000000 0.000000 
						CHANNELS 3 Yrotation Zrotation Xrotation
						JOINT lHand
						{
							OFFSET 8.370511 0.000000 0.000000 
							CHANNELS 3 Zrotation Yrotation Xrotation
							End Site
							{
								OFFSET 4.083176 0.000000 0.000000 
							}
						}
					}
				}
			}
			JOINT rCollar
			{
				OFFSET -3.470700 6.669187 -0.816635 
				CHANNELS 3 Yrotation Zrotation Xrotation
				JOINT rShldr
				{
					OFFSET -3.198488 0.000000 0.000000 
					CHANNELS 3 Zrotation Yrotation Xrotation
					JOINT rForeArm
					{
						OFFSET -10.139888 0.000000 0.000000 
						CHANNELS 3 Yrotation Zrotation Xrotation
						JOINT rHand
						{
							OFFSET -8.370511 0.000000 0.000000 
							CHANNELS 3 Zrotation Yrotation Xrotation
							End Site
							{
								OFFSET -4.083176 0.000000 0.000000 
							}
						}
					}
				}
			}
		}
	}
	JOINT lThigh
	{
		OFFSET 5.308129 -1.633274 1.361059 
		CHANNELS 3 Xrotation Zrotation Yrotation
		JOINT lShin
		{
			OFFSET -2.041588 -20.007561 0.000000 
			CHANNELS 3 Xrotation Zrotation Yrotation
			JOINT lFoot
			{
				OFFSET 0.000000 -19.190928 -1.224953 
				CHANNELS 3 Xrotation Yrotation Zrotation
				End Site
				{
					OFFSET 0.000000 -2.449906 4.627600 
				}
			}
		}
	}
	JOINT rThigh
	{
		OFFSET -5.308129 -1.633274 1.361059 
		CHANNELS 3 Xrotation Zrotation Yrotation
		JOINT rShin
		{
			OFFSET 2.041588 -20.007561 0.000000 
			CHANNELS 3 Xrotation Zrotation Yrotation
			JOINT rFoot
			{
				OFFSET 0.000000 -19.190928 -1.224953 
				CHANNELS 3 Xrotation Yrotation Zrotation
				End Site
				{
					OFFSET 0.000000 -2.449906 4.627600 
				}
			}
		}
	}
}
MOTION
Frames: 16
Frame Time: 0.016667
-1.182079 41.134892 -2.113532 38.266701 43.573002 -26.463400 -13.424200 8.087920 5.357000 9.674670 -1.352200 2.867280 25.830700 -7.478960 -9.158180 -8.603520 0.000000 0.000000 2.000000 -2.000000 0.000000 10.330400 -114.441002 129.979996 39.453499 -0.320413 0.086934 5.571710 -0.194605 -147.876007 -2.000000 2.000000 0.000000 11.970600 54.754002 113.878998 -43.984798 0.313220 0.094954 6.462680 -1.607730 -102.203003 -58.935604 -4.902767 31.294878 25.256695 0.840618 3.094363 -10.752311 11.441182 5.501377 -82.379601 -2.247670 33.848515 38.076408 -1.556137 -3.198948 2.616097 13.432287 -0.857934 
-1.140323 41.164234 -2.122565 38.287498 43.396099 -26.202299 -13.463800 8.185770 5.618820 9.624990 -1.524570 3.018930 26.324900 -8.655020 -9.003890 -8.603520 0.000000 0.000000 2.000000 -2.000000 0.000000 10.735200 -114.939003 129.677994 39.355900 -0.320561 0.086754 5.569390 -0.153884 -148.315994 -2.000000 2.000000 0.000000 9.811080 54.355999 111.184998 -40.605900 0.318645 0.088991 6.483200 -1.517740 -102.982002 -58.783859 -5.145570 30.829670 24.874952 0.821814 3.064028 -10.520669 11.642339 5.528041 -82.289482 -2.457092 33.766571 38.086029 -1.560320 -3.200139 2.581958 13.348036 -0.864613 
-1.077354 41.212379 -2.126698 37.981300 43.208900 -26.155399 -13.420700 8.185480 5.702490 9.624530 -1.610870 3.064880 26.972900 -9.904420 -7.870490 -8.603520 0.000000 0.000000 2.000000 -2.000000 0.000000 11.015700 -115.222000 129.552002 38.974998 -0.321135 0.086050 5.570150 -0.137426 -148.453003 -2.000000 2.000000 0.000000 7.497920 53.810799 109.233002 -37.041401 0.323976 0.082365 6.569160 -1.112470 -106.392998 -58.449009 -5.455855 30.531336 24.561865 0.818794 3.054168 -10.376091 11.806111 5.579118 -82.010597 -2.765122 33.603016 38.036869 -1.570111 -3.204431 2.693813 13.351590 -0.895724 
-1.014389 41.260551 -2.130844 37.689301 43.015598 -26.110300 -13.377200 8.188590 5.796660 9.624050 -1.697160 3.110830 27.613001 -11.177500 -6.760640 -8.603520 0.000000 0.000000 2.000000 -2.000000 0.000000 11.286500 -115.505997 129.434006 38.594101 -0.321704 0.085341 5.575510 -0.129259 -148.580002 -2.000000 2.000000 0.000000 5.253390 53.216499 107.339996 -33.486698 0.328872 0.075441 6.620610 -0.705073 -109.796997 -58.063553 -5.778608 30.211145 24.113226 0.790057 3.053464 -10.152595 11.958599 5.603448 -81.730247 -3.059990 33.441963 37.977566 -1.579537 -3.199344 2.806302 13.344748 -0.932724 
-0.940716 41.283905 -2.147998 37.503601 42.692501 -25.786200 -13.382900 8.233880 5.695080 9.604840 -1.639520 3.061220 27.450500 -12.625300 -4.788680 -8.603520 0.000000 0.000000 2.000000 -2.000000 0.000000 11.976600 -115.516998 128.692001 38.359798 -0.322052 0.084904 5.571620 -0.104481 -148.834000 -2.000000 2.000000 0.000000 4.635440 52.748100 106.811996 -31.865601 0.330960 0.072185 6.637060 -0.533880 -111.237999 -57.788250 -6.017481 30.135101 23.936075 0.799137 3.031860 -9.993396 11.703784 5.491970 -81.501892 -3.412671 33.238724 38.103291 -1.593091 -3.180981 2.701076 13.275382 -0.924432 
-0.867045 41.307148 -2.165152 37.315800 42.361000 -25.475700 -13.389000 8.288680 5.591250 9.585660 -1.572310 3.009720 27.264099 -14.072500 -2.813390 -8.603520 0.000000 0.000000 2.000000 -2.000000 0.000000 12.656900 -115.528000 127.949997 38.115601 -0.322413 0.084446 5.577280 -0.079567 -149.087006 -2.000000 2.000000 0.000000 4.037100 52.269901 106.293999 -30.244499 0.332955 0.068871 6.648480 -0.359644 -112.677002 -57.532043 -6.247306 30.038380 23.800219 0.784108 3.043195 -9.853303 11.446304 5.380579 -81.263489 -3.770293 33.025276 38.249149 -1.600215 -3.169751 2.595607 13.199635 -0.928804 
-0.783091 41.346870 -2.188406 37.092400 41.906601 -25.105600 -13.456100 8.845970 5.502730 9.383510 -0.852670 2.893000 26.610701 -15.400200 0.016639 -8.603520 0.000000 0.000000 2.000000 -2.000000 0.000000 13.437800 -115.706001 125.957001 37.900799 -0.322729 0.084042 5.572940 -0.054519 -149.341003 -2.000000 2.000000 0.000000 5.752200 51.731499 108.167000 -32.627300 0.329990 0.073722 6.639670 -0.309193 -113.108002 -57.180172 -6.490232 29.802404 23.623592 0.788018 3.030365 -9.605404 11.284242 5.262032 -80.885757 -4.114909 32.912914 38.366825 -1.608945 -3.188751 2.312145 12.966657 -0.877435 
-0.699136 41.386593 -2.211660 36.874901 41.451302 -24.724800 -13.514800 9.403270 5.412870 9.189420 -0.134037 2.761320 25.924101 -16.694599 2.876280 -8.603520 0.000000 0.000000 2.000000 -2.000000 0.000000 14.189400 -115.903999 124.001999 37.676201 -0.323057 0.083619 5.578150 -0.029341 -149.604996 -2.000000 2.000000 0.000000 7.427830 51.153900 109.991997 -35.010101 0.326826 0.078446 6.649620 -0.256801 -113.547997 -56.769093 -6.748285 29.516283 23.321453 0.770778 3.037038 -9.251815 11.122484 5.185493 -80.558907 -4.418786 32.789207 38.630341 -1.625786 -3.196723 1.948006 12.720022 -0.813455 
-0.607566 41.411644 -2.232363 36.799198 40.760700 -24.266100 -13.301000 9.480860 4.961860 9.540970 0.172542 2.525010 24.311501 -16.975800 6.587580 -8.603520 0.000000 0.000000 2.000000 -2.000000 0.000000 15.135300 -115.114998 122.603996 37.890999 -0.322743 0.084024 5.573120 0.029939 -150.240005 -2.000000 2.000000 0.000000 9.730860 51.308201 112.207001 -38.633202 0.321646 0.085365 6.646100 -0.346144 -112.775002 -56.551601 -6.718007 29.219898 23.466391 0.783021 3.005123 -9.186465 10.825830 5.024779 -80.117027 -4.668609 32.440235 38.688129 -1.638234 -3.189580 1.753270 12.414879 -0.789591 
-0.515997 41.436829 -2.253057 36.712898 40.087399 -23.817900 -13.086200 9.568180 4.512040 9.892180 0.489445 2.290650 22.719700 -17.175800 10.302600 -8.603520 0.000000 0.000000 2.000000 -2.000000 0.000000 16.158701 -114.335999 121.139000 38.105900 -0.322427 0.084428 5.576530 0.089963 -150.875000 -2.000000 2.000000 0.000000 12.063000 51.403801 114.421997 -42.265999 0.316023 0.091961 6.642280 -0.440165 -112.012001 -56.275185 -6.716956 28.918421 23.514805 0.796319 3.006146 -9.074867 10.496934 4.899116 -79.674240 -4.933172 32.088917 38.727085 -1.641489 -3.189622 1.585877 12.100944 -0.762712 
-0.404991 41.497448 -2.283130 36.406200 39.315601 -23.413601 -12.817100 9.565090 3.824820 10.330900 0.855337 1.945340 20.446699 -16.582800 14.045900 -8.603520 0.000000 0.000000 2.000000 -2.000000 0.000000 17.804501 -113.224998 118.774002 38.584400 -0.321719 0.085323 5.571950 0.081338 -150.776993 -2.000000 2.000000 0.000000 14.034900 51.860401 116.735001 -45.273899 0.311059 0.097143 6.636210 -0.528043 -111.287003 -55.788769 -6.806763 28.592434 23.435980 0.807295 3.001060 -8.956386 10.152092 4.754671 -78.999611 -5.243863 31.934437 38.805405 -1.647320 -3.199171 1.254210 11.709103 -0.738286 
-0.293983 41.558189 -2.313214 36.106998 38.554001 -22.981199 -12.535100 9.575410 3.148330 10.769200 1.222190 1.605640 18.254400 -15.875400 17.765499 -8.603520 0.000000 0.000000 2.000000 -2.000000 0.000000 19.653299 -112.153999 116.223000 39.062901 -0.321003 0.086213 5.577100 0.072736 -150.688995 -2.000000 2.000000 0.000000 16.055599 52.268002 119.097000 -48.271900 0.305847 0.102043 6.628500 -0.612838 -110.571999 -55.233459 -6.919785 28.236876 23.230658 0.792000 2.985373 -8.758837 9.816133 4.616313 -78.293587 -5.577852 31.771029 38.833401 -1.651426 -3.170696 0.963359 11.268959 -0.706275 
-0.166634 41.636341 -2.349667 35.642700 37.663700 -22.647301 -12.513700 9.649800 2.629790 10.924000 1.588620 1.341840 15.621200 -14.983900 20.521799 -8.603520 0.000000 0.000000 2.000000 -2.000000 0.000000 23.304501 -111.698997 112.178001 39.863701 -0.319789 0.087688 5.568620 0.150830 -151.597000 -2.000000 2.000000 0.000000 19.172899 52.283199 122.620003 -51.152802 0.300604 0.106487 6.642210 -0.439977 -112.001999 -54.584881 -7.017664 27.719501 23.170309 0.811928 2.961886 -8.670074 9.470231 4.508679 -77.497803 -6.032306 31.069141 38.871456 -1.680105 -3.179380 0.873914 11.196100 -0.704354 
-0.039280 41.714489 -2.386132 35.176899 36.776299 -22.292299 -12.491100 9.737140 2.118570 11.078500 1.945750 1.081660 13.067600 -13.981700 23.237101 -8.603520 0.000000 0.000000 2.000000 -2.000000 0.000000 27.089300 -111.341003 107.976997 40.664501 -0.318554 0.089146 5.571910 0.238883 -152.505005 -2.000000 2.000000 0.000000 22.289301 52.180801 126.133003 -54.033699 0.295144 0.110663 6.642440 -0.270868 -113.420998 -53.957138 -7.087920 27.165768 23.141516 0.808210 2.971902 -8.591877 9.157111 4.396564 -76.678703 -6.494424 30.355864 38.880123 -1.689638 -3.162797 0.781589 11.119356 -0.693920 
0.111614 41.798210 -2.436258 34.547600 35.776100 -22.018000 -12.674300 9.808900 1.997010 11.019200 2.060980 1.030980 11.697300 -13.599500 24.218599 -8.603520 0.000000 0.000000 2.000000 -2.000000 0.000000 31.512800 -111.919998 103.658997 41.738701 -0.316865 0.091074 5.568520 0.319329 -153.335007 -2.000000 2.000000 0.000000 26.017900 50.729500 130.182007 -56.914600 0.289481 0.114559 6.653060 0.093075 -116.419998 -53.216393 -7.129916 26.470163 23.111265 0.826576 2.966583 -8.451862 8.896700 4.293613 -75.653664 -6.880042 29.810770 38.927750 -1.712730 -3.159585 0.561522 10.839961 -0.693949 
0.262505 41.882072 -2.486382 33.912601 34.777401 -21.732700 -12.847800 9.880760 1.874590 10.959700 2.185800 0.978441 10.341000 -13.197800 25.201099 -8.603520 0.000000 0.000000 2.000000 -2.000000 0.000000 35.694401 -112.606003 99.575500 42.812901 -0.315141 0.092970 5.558590 0.392036 -154.164993 -2.000000 2.000000 0.000000 29.470800 49.112202 133.938995 -59.795399 0.283630 0.118166 6.643930 0.455461 -119.425003 -52.486271 -7.145730 25.792328 23.129105 0.843265 2.939865 -8.347075 8.638224 4.173236 -74.629974 -7.252649 29.272381 38.985313 -1.719991 -3.141171 0.333018 10.555677 -0.666386 
